<mxfile host="app.diagrams.net" modified="2023-05-30T19:34:51.716Z" agent="Mozilla/5.0 (Windows NT 10.0; Win64; x64) AppleWebKit/537.36 (KHTML, like Gecko) Chrome/113.0.0.0 Safari/537.36" etag="5ihJ4HutatPezgyv_lDo" version="21.3.4" type="device">
  <diagram name="Страница 1" id="dA3QUob785IR_dFWTUgM">
    <mxGraphModel dx="794" dy="438" grid="1" gridSize="10" guides="1" tooltips="1" connect="1" arrows="1" fold="1" page="1" pageScale="1" pageWidth="827" pageHeight="1169" math="0" shadow="0">
      <root>
        <mxCell id="0" />
        <mxCell id="1" parent="0" />
        <mxCell id="pXGj__hNC2MkwpglHRAj-1" value="create():&amp;nbsp;&lt;span style=&quot;border-color: var(--border-color); font-family: Consolas, &amp;quot;Courier New&amp;quot;, monospace; font-size: 14px; color: rgb(78, 201, 176);&quot;&gt;Coffemat;&lt;/span&gt;" style="rounded=1;whiteSpace=wrap;html=1;" vertex="1" parent="1">
          <mxGeometry x="280" y="120" width="120" height="40" as="geometry" />
        </mxCell>
        <mxCell id="pXGj__hNC2MkwpglHRAj-2" value="" style="rounded=1;whiteSpace=wrap;html=1;" vertex="1" parent="1">
          <mxGeometry x="112.5" y="230" width="120" height="40" as="geometry" />
        </mxCell>
        <mxCell id="pXGj__hNC2MkwpglHRAj-3" value="..." style="rounded=1;whiteSpace=wrap;html=1;" vertex="1" parent="1">
          <mxGeometry x="112.5" y="270" width="120" height="40" as="geometry" />
        </mxCell>
        <mxCell id="pXGj__hNC2MkwpglHRAj-5" value="" style="rounded=1;whiteSpace=wrap;html=1;" vertex="1" parent="1">
          <mxGeometry x="442.5" y="230" width="120" height="40" as="geometry" />
        </mxCell>
        <mxCell id="pXGj__hNC2MkwpglHRAj-6" value="..." style="rounded=1;whiteSpace=wrap;html=1;" vertex="1" parent="1">
          <mxGeometry x="442.5" y="270" width="120" height="40" as="geometry" />
        </mxCell>
        <mxCell id="pXGj__hNC2MkwpglHRAj-8" value="" style="endArrow=none;html=1;rounded=0;" edge="1" parent="1">
          <mxGeometry width="50" height="50" relative="1" as="geometry">
            <mxPoint x="172.5" y="210" as="sourcePoint" />
            <mxPoint x="502.5" y="210" as="targetPoint" />
            <Array as="points">
              <mxPoint x="322.5" y="210" />
            </Array>
          </mxGeometry>
        </mxCell>
        <mxCell id="pXGj__hNC2MkwpglHRAj-9" value="" style="endArrow=none;html=1;rounded=0;exitX=0.5;exitY=0;exitDx=0;exitDy=0;" edge="1" parent="1" source="pXGj__hNC2MkwpglHRAj-5">
          <mxGeometry width="50" height="50" relative="1" as="geometry">
            <mxPoint x="382.5" y="290" as="sourcePoint" />
            <mxPoint x="502.5" y="210" as="targetPoint" />
            <Array as="points" />
          </mxGeometry>
        </mxCell>
        <mxCell id="pXGj__hNC2MkwpglHRAj-10" value="" style="endArrow=none;html=1;rounded=0;exitX=0.5;exitY=0;exitDx=0;exitDy=0;" edge="1" parent="1" source="pXGj__hNC2MkwpglHRAj-2">
          <mxGeometry width="50" height="50" relative="1" as="geometry">
            <mxPoint x="512.5" y="240" as="sourcePoint" />
            <mxPoint x="172.5" y="210" as="targetPoint" />
            <Array as="points" />
          </mxGeometry>
        </mxCell>
        <mxCell id="pXGj__hNC2MkwpglHRAj-14" value="" style="html=1;shadow=0;dashed=0;align=center;verticalAlign=middle;shape=mxgraph.arrows2.arrow;dy=0.8;dx=16;direction=north;notch=1.33;" vertex="1" parent="1">
          <mxGeometry x="335" y="160" width="10" height="50" as="geometry" />
        </mxCell>
        <mxCell id="pXGj__hNC2MkwpglHRAj-21" value="..." style="rounded=1;whiteSpace=wrap;html=1;" vertex="1" parent="1">
          <mxGeometry x="280" y="80" width="120" height="40" as="geometry" />
        </mxCell>
        <mxCell id="pXGj__hNC2MkwpglHRAj-24" value="" style="rounded=1;whiteSpace=wrap;html=1;" vertex="1" parent="1">
          <mxGeometry x="280" y="230" width="120" height="40" as="geometry" />
        </mxCell>
        <mxCell id="pXGj__hNC2MkwpglHRAj-25" value="..." style="rounded=1;whiteSpace=wrap;html=1;" vertex="1" parent="1">
          <mxGeometry x="280" y="270" width="120" height="40" as="geometry" />
        </mxCell>
        <mxCell id="pXGj__hNC2MkwpglHRAj-29" value="" style="endArrow=none;html=1;rounded=0;exitX=0.5;exitY=0;exitDx=0;exitDy=0;entryX=0;entryY=0.5;entryDx=1.33;entryDy=0;entryPerimeter=0;" edge="1" parent="1" source="pXGj__hNC2MkwpglHRAj-24" target="pXGj__hNC2MkwpglHRAj-14">
          <mxGeometry width="50" height="50" relative="1" as="geometry">
            <mxPoint x="380" y="260" as="sourcePoint" />
            <mxPoint x="430" y="210" as="targetPoint" />
          </mxGeometry>
        </mxCell>
        <mxCell id="pXGj__hNC2MkwpglHRAj-31" value="&lt;div style=&quot;font-family: Consolas, &amp;quot;Courier New&amp;quot;, monospace; font-size: 14px; line-height: 19px;&quot;&gt;EspressoCoff&lt;/div&gt;&lt;div style=&quot;font-family: Consolas, &amp;quot;Courier New&amp;quot;, monospace; font-size: 14px; line-height: 19px;&quot;&gt;ematFactory&lt;/div&gt;" style="text;html=1;align=center;verticalAlign=middle;resizable=0;points=[];autosize=1;strokeColor=none;fillColor=none;" vertex="1" parent="1">
          <mxGeometry x="280" y="225" width="120" height="50" as="geometry" />
        </mxCell>
        <mxCell id="pXGj__hNC2MkwpglHRAj-32" value="&lt;div style=&quot;font-family: Consolas, &amp;quot;Courier New&amp;quot;, monospace; font-size: 14px; line-height: 19px;&quot;&gt;LatteCoff&lt;/div&gt;&lt;div style=&quot;font-family: Consolas, &amp;quot;Courier New&amp;quot;, monospace; font-size: 14px; line-height: 19px;&quot;&gt;ematFactory&lt;/div&gt;" style="text;html=1;align=center;verticalAlign=middle;resizable=0;points=[];autosize=1;strokeColor=none;fillColor=none;" vertex="1" parent="1">
          <mxGeometry x="447.5" y="225" width="110" height="50" as="geometry" />
        </mxCell>
        <mxCell id="pXGj__hNC2MkwpglHRAj-36" value="CoffematFactory" style="rounded=1;whiteSpace=wrap;html=1;" vertex="1" parent="1">
          <mxGeometry x="280" y="40" width="120" height="40" as="geometry" />
        </mxCell>
        <mxCell id="pXGj__hNC2MkwpglHRAj-37" value="AmericanoCoff&lt;br&gt;-ematFactory" style="text;html=1;align=center;verticalAlign=middle;resizable=0;points=[];autosize=1;strokeColor=none;fillColor=none;" vertex="1" parent="1">
          <mxGeometry x="122.5" y="230" width="100" height="40" as="geometry" />
        </mxCell>
        <mxCell id="pXGj__hNC2MkwpglHRAj-42" value="create():&amp;nbsp;Coffemat;" style="rounded=1;whiteSpace=wrap;html=1;" vertex="1" parent="1">
          <mxGeometry x="112.5" y="310" width="120" height="40" as="geometry" />
        </mxCell>
        <mxCell id="pXGj__hNC2MkwpglHRAj-43" value="create():&amp;nbsp;Coffemat;" style="rounded=1;whiteSpace=wrap;html=1;" vertex="1" parent="1">
          <mxGeometry x="442.5" y="310" width="120" height="40" as="geometry" />
        </mxCell>
        <mxCell id="pXGj__hNC2MkwpglHRAj-44" value="create():&amp;nbsp;Coffemat;" style="rounded=1;whiteSpace=wrap;html=1;" vertex="1" parent="1">
          <mxGeometry x="280" y="310" width="120" height="40" as="geometry" />
        </mxCell>
      </root>
    </mxGraphModel>
  </diagram>
</mxfile>
